<?xml version="1.0" standalone="no"?>
<!DOCTYPE svg PUBLIC "-//W3C//DTD SVG 20010904//EN"
 "http://www.w3.org/TR/2001/REC-SVG-20010904/DTD/svg10.dtd">
<svg version="1.0" xmlns="http://www.w3.org/2000/svg"
 width="300.000000pt" height="115.000000pt" viewBox="0 0 300.000000 115.000000"
 preserveAspectRatio="xMidYMid meet">
<metadata>
Created by potrace 1.10, written by Peter Selinger 2001-2011
</metadata>
<g transform="translate(0.000000,115.000000) scale(0.100000,-0.100000)"
fill="#000000" stroke="none">
<path d="M1114 1085 c4 -11 10 -38 13 -62 3 -23 9 -40 14 -37 8 4 21 -37 34
-101 7 -38 -5 -13 -21 45 -7 25 -13 38 -13 29 -2 -30 60 -221 95 -294 86 -182
208 -270 306 -219 35 18 118 92 118 106 0 5 -23 -14 -50 -42 -28 -27 -56 -50
-62 -50 -7 0 2 10 19 23 16 12 42 37 57 54 15 18 32 32 38 30 14 -3 81 130
113 224 24 72 77 300 71 306 -2 2 -45 -8 -96 -21 -51 -14 -120 -29 -154 -33
-55 -7 -58 -8 -26 -13 19 -3 -19 -6 -85 -6 -66 0 -106 3 -90 7 l30 7 -30 1
c-27 1 -201 39 -264 57 -21 6 -23 5 -17 -11z m194 -90 c7 2 10 1 7 -4 -3 -6 2
-14 10 -18 9 -5 40 -70 70 -144 51 -126 56 -134 83 -137 32 -3 33 -2 111 198
l29 75 64 27 c63 28 98 35 98 20 0 -21 -74 -260 -96 -310 -41 -92 -84 -153
-121 -168 -39 -17 -118 -18 -161 -3 -35 12 -88 84 -126 172 -22 48 -74 220
-90 294 l-7 32 57 -20 c32 -10 64 -17 72 -14z m92 -9 c22 1 40 -3 40 -8 0 -7
4 -7 13 0 6 5 28 8 47 7 19 -2 54 1 77 5 33 6 40 4 36 -6 -3 -8 -10 -14 -15
-14 -5 0 -8 -6 -5 -12 2 -7 -1 -24 -8 -38 -23 -46 -44 -94 -61 -142 -31 -89
-57 -87 -88 6 -11 31 -23 56 -29 56 -5 0 -7 7 -3 15 3 8 1 15 -4 15 -6 0 -9 3
-8 8 1 4 -6 24 -15 46 -9 21 -17 42 -17 47 0 5 -5 9 -11 9 -5 0 -7 5 -3 12 5
7 9 8 11 2 2 -6 21 -9 43 -8z m-181 -235 c11 -30 19 -57 17 -59 -4 -3 -46 102
-46 115 0 14 9 -4 29 -56z m108 -205 c12 -15 39 -41 59 -57 20 -16 32 -29 26
-29 -30 0 -173 181 -172 217 0 5 15 -17 33 -48 18 -30 42 -68 54 -83z m171
-45 c11 -7 11 -9 -2 -14 -20 -8 -48 2 -40 14 7 11 25 11 42 0z"/>
<path d="M1210 991 c0 -8 5 -29 12 -47 9 -25 19 -34 45 -39 22 -4 37 -14 42
-28 11 -28 9 -30 -24 -17 -32 12 -38 9 -29 -13 3 -9 21 -19 40 -23 19 -3 39
-15 45 -26 14 -26 7 -31 -26 -18 -33 13 -35 11 -24 -17 6 -17 16 -23 38 -23
20 0 34 -7 41 -19 15 -30 13 -33 -20 -26 -16 4 -30 3 -30 -2 0 -18 17 -31 48
-38 18 -3 37 -15 42 -25 13 -25 13 -33 -2 -27 -7 2 -23 7 -36 11 l-22 7 17
-35 c9 -20 19 -33 22 -29 3 5 15 15 26 23 20 15 20 14 1 -8 -11 -12 -14 -22
-9 -22 36 0 35 49 -1 119 -10 18 -15 39 -12 47 3 8 2 13 -3 10 -5 -3 -14 8
-21 24 -10 24 -10 33 1 48 7 9 10 14 5 10 -10 -9 -36 14 -28 26 3 5 0 6 -5 3
-15 -9 -23 29 -10 42 8 8 7 11 -2 11 -7 0 -9 5 -5 12 5 8 2 9 -10 5 -10 -4
-19 -1 -22 8 -4 8 -12 15 -19 15 -7 0 -12 8 -11 18 1 12 -5 16 -18 14 -18 -3
-18 -2 -5 14 11 14 11 16 0 10 -8 -5 -17 -3 -22 5 -7 12 -9 12 -9 0z"/>
<path d="M1712 991 c-7 -4 -14 -15 -16 -25 -1 -9 -20 -34 -41 -56 -26 -27 -34
-40 -23 -40 9 0 18 6 21 14 3 7 21 16 40 20 28 5 38 13 46 38 14 39 14 51 1
43 -6 -4 -8 -10 -5 -14 2 -5 -5 -17 -18 -27 l-22 -19 19 23 c13 14 15 22 6 22
-10 0 -10 3 0 15 14 17 11 19 -8 6z"/>
<path d="M1672 859 c-13 -5 -28 -6 -33 -3 -5 3 -8 0 -7 -8 2 -7 -3 -12 -9 -10
-7 1 -12 -4 -10 -10 1 -7 -4 -12 -11 -10 -8 1 -11 -2 -7 -8 4 -6 1 -18 -7 -27
-12 -15 -11 -15 8 -5 12 6 24 18 28 27 3 8 16 15 30 15 24 0 56 23 56 41 0 11
-8 11 -38 -2z"/>
<path d="M1636 778 c-37 -14 -60 -38 -64 -67 -2 -14 -10 -35 -19 -47 -8 -12
-15 -34 -17 -48 -4 -37 -22 -54 -56 -50 -16 2 -32 -1 -35 -6 -4 -6 1 -7 12 -3
16 6 17 5 3 -13 -14 -19 -14 -19 7 -1 12 11 26 16 31 13 5 -3 23 4 38 17 l29
22 -19 -30 -19 -30 21 19 c17 14 22 16 22 5 0 -8 9 1 21 20 24 40 21 45 -16
31 -33 -13 -35 -11 -25 17 6 13 21 24 42 28 31 7 48 20 48 38 0 5 -13 6 -30 2
-18 -4 -30 -3 -30 3 0 19 31 42 55 42 14 0 29 8 35 19 18 34 14 36 -34 19z"/>
<path d="M98 240 c33 -53 41 -60 69 -60 28 0 37 7 68 55 19 31 35 58 35 60 0
3 -10 5 -23 5 -16 0 -29 -12 -47 -45 -14 -25 -27 -45 -30 -45 -3 0 -17 20 -32
45 -21 34 -34 45 -52 45 l-25 0 37 -60z"/>
<path d="M320 240 l0 -60 81 0 c58 0 80 3 77 12 -3 8 -24 11 -61 9 -46 -2 -57
1 -57 13 0 13 12 16 55 16 30 0 55 5 55 10 0 6 -25 10 -55 10 -42 0 -55 3 -55
15 0 12 13 15 61 15 37 0 58 4 54 10 -3 6 -40 10 -81 10 l-74 0 0 -60z"/>
<path d="M536 284 c-18 -17 -21 -61 -6 -84 6 -9 32 -16 78 -18 80 -5 115 8
110 40 -3 18 -10 21 -50 22 -27 1 -47 -3 -45 -9 1 -5 13 -9 26 -7 15 2 22 -1
19 -10 -3 -8 -21 -13 -49 -13 -44 0 -44 0 -44 35 0 33 2 35 39 38 21 2 43 -1
49 -7 13 -13 57 -15 57 -3 0 22 -29 32 -96 32 -53 0 -77 -4 -88 -16z"/>
<path d="M788 242 c-36 -55 -37 -57 -16 -60 12 -2 27 2 32 10 13 16 92 16 108
0 7 -7 23 -12 35 -12 23 0 22 2 -17 60 -36 53 -45 60 -73 60 -28 0 -37 -8 -69
-58z m88 11 c20 -27 17 -33 -16 -33 -33 0 -35 3 -20 31 13 24 19 24 36 2z"/>
<path d="M1108 240 c3 -51 7 -60 23 -60 17 0 19 8 19 60 0 56 -2 60 -22 60
-22 0 -23 -3 -20 -60z"/>
<path d="M1190 240 c0 -55 2 -60 21 -60 19 0 21 4 16 35 -7 44 1 44 36 0 18
-23 36 -35 52 -35 24 0 25 3 25 60 0 55 -2 60 -21 60 -19 0 -21 -4 -16 -35 3
-19 2 -35 -2 -35 -5 0 -21 16 -35 35 -18 23 -35 35 -52 35 -23 0 -24 -3 -24
-60z"/>
<path d="M1375 240 c0 -56 1 -60 24 -60 21 0 23 3 16 38 l-7 37 39 -37 c21
-21 49 -38 61 -38 20 0 22 5 22 60 0 53 -2 60 -20 60 -16 0 -20 -7 -20 -37
l-1 -38 -32 38 c-21 24 -40 37 -57 37 -24 0 -25 -3 -25 -60z"/>
<path d="M1583 293 c-20 -7 -17 -99 3 -107 25 -10 114 -7 135 4 22 12 27 78 7
98 -12 12 -120 16 -145 5z m112 -53 c0 -22 -5 -25 -42 -28 -42 -3 -43 -2 -43
28 0 30 1 31 43 28 37 -3 42 -6 42 -28z"/>
<path d="M1803 241 c55 -78 71 -78 125 -1 42 59 42 60 18 60 -19 0 -31 -10
-48 -40 -13 -22 -26 -40 -29 -40 -4 0 -18 18 -33 40 -19 29 -33 40 -51 40 -24
0 -24 -1 18 -59z"/>
<path d="M1982 240 c-40 -58 -40 -60 -17 -60 13 0 27 5 30 10 3 6 26 10 50 10
24 0 47 -4 50 -10 3 -5 17 -10 31 -10 24 0 24 1 -18 60 -29 41 -49 60 -63 60
-15 0 -34 -19 -63 -60z m82 4 c9 -23 8 -24 -19 -24 -27 0 -32 9 -13 28 16 16
25 15 32 -4z"/>
<path d="M2140 285 c0 -9 9 -15 25 -15 23 0 25 -4 25 -45 0 -38 3 -45 20 -45
17 0 20 7 20 45 0 41 2 45 25 45 16 0 25 6 25 15 0 12 -14 15 -70 15 -56 0
-70 -3 -70 -15z"/>
<path d="M2310 240 c0 -53 2 -60 20 -60 18 0 20 7 20 60 0 53 -2 60 -20 60
-18 0 -20 -7 -20 -60z"/>
<path d="M2403 293 c-20 -7 -17 -99 3 -107 25 -10 114 -7 135 4 22 12 27 78 7
98 -12 12 -120 16 -145 5z m112 -53 c0 -22 -5 -25 -42 -28 -42 -3 -43 -2 -43
28 0 30 1 31 43 28 37 -3 42 -6 42 -28z"/>
<path d="M2600 240 c0 -55 2 -60 21 -60 19 0 21 4 16 35 -7 44 1 44 36 0 18
-23 36 -35 52 -35 24 0 25 3 25 60 0 54 -2 60 -20 60 -18 0 -20 -4 -14 -35 8
-44 -4 -44 -39 0 -18 23 -36 35 -52 35 -24 0 -25 -3 -25 -60z"/>
<path d="M2797 294 c-13 -13 -7 -52 9 -58 9 -3 36 -6 60 -6 26 0 44 -5 44 -11
0 -8 -18 -10 -61 -6 -54 6 -60 5 -57 -11 3 -14 15 -17 78 -17 l75 0 0 30 c0
30 -1 30 -57 33 -45 2 -58 7 -58 19 0 13 9 15 61 9 48 -6 60 -4 57 6 -5 14
-138 25 -151 12z"/>
<path d="M60 90 c0 -16 5 -30 10 -30 6 0 10 14 10 30 0 17 -4 30 -10 30 -5 0
-10 -13 -10 -30z"/>
<path d="M190 90 c0 -16 4 -30 9 -30 10 0 22 40 15 52 -11 18 -24 6 -24 -22z"/>
<path d="M226 94 c-8 -29 -3 -39 13 -29 13 8 15 55 2 55 -5 0 -12 -12 -15 -26z"/>
<path d="M360 90 c0 -28 2 -29 20 -18 11 7 20 21 20 30 0 11 -8 18 -20 18 -16
0 -20 -7 -20 -30z"/>
<path d="M510 90 c0 -16 5 -30 10 -30 6 0 10 14 10 30 0 17 -4 30 -10 30 -5 0
-10 -13 -10 -30z"/>
<path d="M641 88 c0 -27 2 -30 9 -13 7 18 8 19 15 3 4 -10 11 -18 15 -18 11 0
19 49 9 56 -5 3 -9 -3 -9 -13 -1 -17 -1 -17 -14 0 -19 25 -26 21 -25 -15z"/>
<path d="M807 113 c-11 -10 -8 -53 3 -53 6 0 10 14 10 30 0 31 -2 35 -13 23z"/>
<path d="M930 110 c0 -5 4 -10 9 -10 5 0 12 -10 14 -22 l4 -23 2 23 c0 12 6
22 11 22 6 0 10 5 10 10 0 6 -11 10 -25 10 -14 0 -25 -4 -25 -10z"/>
<path d="M1090 90 c0 -24 4 -30 23 -30 18 0 19 2 7 10 -8 5 -10 10 -4 10 7 0
14 9 17 20 4 16 0 20 -19 20 -20 0 -24 -5 -24 -30z"/>
<path d="M1501 88 c1 -20 3 -26 6 -14 4 15 7 16 13 5 5 -7 12 -11 15 -7 7 7
-16 48 -27 48 -5 0 -7 -15 -7 -32z"/>
<path d="M1543 99 c4 -13 7 -27 7 -31 0 -5 5 -8 11 -8 15 0 6 53 -10 58 -10 4
-12 -1 -8 -19z"/>
<path d="M1681 94 c-13 -29 -6 -47 10 -24 8 13 10 13 18 0 15 -23 25 -3 13 25
-15 32 -26 32 -41 -1z"/>
<path d="M1836 105 c-9 -25 4 -45 30 -45 24 0 33 23 14 35 -5 3 -10 -2 -10
-11 0 -15 -2 -16 -12 -5 -11 10 -9 15 6 27 19 14 19 14 -1 14 -11 0 -23 -7
-27 -15z"/>
<path d="M1999 117 c-5 -28 -2 -47 6 -49 14 -2 19 32 6 45 -6 6 -11 8 -12 4z"/>
<path d="M2127 113 c-11 -10 -8 -53 3 -53 6 0 10 8 10 18 1 16 1 16 11 0 15
-27 29 -21 29 12 0 17 -4 30 -10 30 -5 0 -10 -5 -10 -11 0 -8 -4 -9 -13 0 -8
6 -17 8 -20 4z"/>
<path d="M2296 98 c-9 -35 -7 -41 8 -29 10 8 16 9 21 1 14 -22 23 -8 12 20
-13 36 -32 39 -41 8z"/>
<path d="M2448 108 c7 -7 12 -20 12 -30 0 -10 5 -18 10 -18 6 0 10 8 10 18 0
10 5 23 12 30 9 9 4 12 -22 12 -26 0 -31 -3 -22 -12z"/>
<path d="M2600 90 c0 -16 5 -30 10 -30 6 0 10 14 10 30 0 17 -4 30 -10 30 -5
0 -10 -13 -10 -30z"/>
<path d="M2737 113 c-4 -3 -7 -17 -7 -30 0 -18 6 -23 24 -23 26 0 36 14 28 43
-4 17 -32 23 -45 10z"/>
<path d="M2890 90 c0 -16 4 -30 9 -30 10 0 22 40 15 52 -11 18 -24 6 -24 -22z"/>
<path d="M2927 98 c-7 -23 -1 -38 14 -38 5 0 9 14 9 30 0 35 -15 40 -23 8z"/>
</g>
</svg>
