<?xml version="1.0" standalone="no"?>
<!DOCTYPE svg PUBLIC "-//W3C//DTD SVG 20010904//EN"
 "http://www.w3.org/TR/2001/REC-SVG-20010904/DTD/svg10.dtd">
<svg version="1.0" xmlns="http://www.w3.org/2000/svg"
 width="220.000000pt" height="220.000000pt" viewBox="0 0 220.000000 220.000000"
 preserveAspectRatio="xMidYMid meet">

<g transform="translate(0.000000,220.000000) scale(0.100000,-0.100000)"
fill="#000000" stroke="none">
<path d="M850 1316 c0 -31 50 -205 74 -260 33 -75 91 -153 127 -171 46 -24 81
-19 127 20 71 61 124 174 162 344 l18 83 -26 -6 c-188 -40 -271 -43 -404 -11
-78 18 -78 18 -78 1z m99 -116 c14 -3 27 -12 29 -19 3 -10 -1 -12 -17 -8 -33
8 -26 -19 9 -32 33 -11 42 -37 10 -28 -11 3 -20 2 -20 -2 0 -13 24 -31 41 -31
9 0 19 -7 23 -15 4 -11 -2 -15 -21 -15 -21 0 -23 -2 -13 -14 6 -8 21 -16 32
-18 29 -4 36 -28 8 -28 -16 0 -20 -4 -16 -15 10 -27 -3 -16 -29 25 -26 41 -68
157 -80 220 -6 33 -6 34 7 10 7 -13 24 -27 37 -30z m321 -83 c-17 -47 -40
-102 -51 -122 -21 -36 -36 -47 -25 -20 4 11 -2 15 -21 15 -21 0 -23 2 -13 14
6 8 21 16 32 18 29 4 36 28 8 28 -29 0 -21 23 11 30 13 3 25 13 27 22 2 12 -2
15 -18 11 -16 -4 -19 -2 -14 11 3 9 14 16 24 16 10 0 23 7 30 15 11 13 8 15
-15 15 -23 0 -26 2 -15 15 7 8 19 15 26 15 8 0 19 9 26 20 26 42 20 -14 -12
-103z"/>
</g>
</svg>
